<svg xmlns="http://www.w3.org/2000/svg" viewBox="0 0 200.23 200.24"><title>logo</title><g data-name="Layer 1"><path fill="#14aa40" d="M0 0h200.23v200.24H0z"/><path fill="#fff" d="M15.02 105.88h10.87v12.35h8.93v-12.35h10.86v34.71H34.82v-12.44h-8.93v12.44H15.02v-34.71M102 131.48h-3.17v9.11H88v-34.71h17.36c8.83 0 13.63 5.26 13.63 12.83 0 5-2.23 8.79-5.95 10.93l6.89 11h-12.67zm2.13-8.59a3.79 3.79 0 0 0 4-4.12c0-2.58-1.37-4.21-4-4.21h-5.3v8.33zM15 150.33h18c6.49 0 10.31 3.77 10.31 9a8.31 8.31 0 0 1-4.55 7.79c4.16.93 6.68 3.76 6.68 8.08 0 5.86-4.26 9.87-12.19 9.87H15zm15.37 13.55A2.59 2.59 0 0 0 33 161a2.55 2.55 0 0 0-2.63-2.67h-5v5.57zm2.16 13.2a2.69 2.69 0 0 0 2.72-3 2.74 2.74 0 0 0-2.78-2.87h-7.2v5.83zM49.94 150.33h10.85v25.7h14.09v9.02H49.94v-34.72M77.74 169.87v-4.36c0-9.43 5.71-15.88 16.56-15.88s16.57 6.45 16.57 15.88v4.36c0 9.43-5.7 15.87-16.57 15.87s-16.56-6.44-16.56-15.87m22.28.64v-5.65c0-4-2-6.2-5.72-6.2s-5.7 2.18-5.7 6.2v5.65c0 4 2 6.2 5.7 6.2s5.72-2.19 5.72-6.2M131 176.71c3.81 0 5.2-2.61 5.4-5.15h10.27c-.25 7.83-5.7 14.18-15.47 14.18-11.21 0-16.56-6.35-16.56-15.77v-4.56c0-9.43 5.35-15.78 16.56-15.78 9.77 0 15.22 6.35 15.47 14.2H136.4c-.2-2.54-1.59-5.17-5.4-5.17s-5.5 2.44-5.5 6.26v5.54c0 3.82 1.78 6.25 5.5 6.25M185.44 152.43a2.88 2.88 0 1 1 2.88 2.79 2.75 2.75 0 0 1-2.88-2.79m5.14 0a2.26 2.26 0 1 0-2.26 2.26 2.14 2.14 0 0 0 2.26-2.26m-2.29.45h-.16v.67h-.77v-2.42h1.11c.64 0 1 .34 1 .88a.87.87 0 0 1-.36.73l.46.81h-.89zm.08-.59a.27.27 0 0 0 .29-.28c0-.15-.1-.25-.29-.25h-.24v.53zM152.58 150.33h10.86v12.08h.69l7.05-12.08h12.18l-9.1 15.66 10.13 19.06h-12.92l-7.17-14.46h-.86v14.46h-10.86v-34.72M78.77 133.27a13.56 13.56 0 0 0 1.37-6.66v-5.42h-7.68v5.08l-8-9a4.3 4.3 0 0 1-1.29-2.85 2.47 2.47 0 0 1 4.92.15v1.68h8.28v-2.18c0-5.5-4.56-8.87-10.92-8.87-6.89 0-11.32 3.62-11.32 9.08a8.18 8.18 0 0 0 2.82 6.06 10.4 10.4 0 0 0-6.29 9.5c0 6.9 5.42 11.46 15 11.46a15.67 15.67 0 0 0 8.55-2.36l1.53 1.66h9.67zm-13.39.89c-2.36 0-5.62-1.37-5.62-4.58a5 5 0 0 1 2.36-4s5.67 6.38 6.87 7.66a7.18 7.18 0 0 1-3.61.95"/></g></svg>