<svg xmlns="http://www.w3.org/2000/svg" viewBox="0 0 300 250"><title>Asset 1</title><path fill="none" d="M0 0h300v250H0z"/><path d="M21.24 19.69h8.67v2.85h-5v2.73h4V28h-4v4.54h-3.67zM30.82 20.58a1.77 1.77 0 1 1 1.76 1.65 1.68 1.68 0 0 1-1.76-1.65zm.18 2.55h3.2v9.39H31zM36 19h3.2v13.52H36zM40.43 27.94v-.14a4.8 4.8 0 0 1 5.07-4.92 4.46 4.46 0 0 1 4.78 4.85v.84h-6.61a1.87 1.87 0 0 0 2 1.95c1.06 0 1.51-.48 1.63-1.11h3c-.29 2.12-1.92 3.32-4.76 3.32s-5.11-1.73-5.11-4.79zm6.73-1.18C47.1 25.63 46.55 25 45.5 25a1.79 1.79 0 0 0-1.79 1.76zM53.87 23.13h3.36l1.36 5.62 1.58-5.62h2.58l1.4 5.62 1.53-5.62h3l-3 9.39h-3l-1.4-5.24-1.45 5.24h-3.12zM69.49 20.58a1.77 1.77 0 1 1 1.76 1.65 1.68 1.68 0 0 1-1.76-1.65zm.16 2.55h3.21v9.39h-3.21zM75 29.5v-4.18h-1.12v-2.19H75v-1.95h3.21v1.95h1.85v2.19h-1.83v3.88a.85.85 0 0 0 1 1 2.35 2.35 0 0 0 .91-.16v2.44a6.59 6.59 0 0 1-1.77.27C76.2 32.73 75 31.71 75 29.5zM81.3 19h3.21v5.64a3.32 3.32 0 0 1 3.09-1.76c1.81 0 3.07 1.13 3.07 3.54v6.1h-3.22v-5.46c0-1.06-.41-1.58-1.34-1.58s-1.6.58-1.6 1.78v5.26H81.3zM21.24 39.64h3.69v4.89h4.22v-4.89h3.68v12.83h-3.68v-5.06h-4.22v5.06h-3.69zM45.14 49.85l2.14 2.62H43.1l-.75-.94a5.11 5.11 0 0 1-3.47 1.15c-2.73 0-4.5-1.43-4.5-3.87 0-1.66 1-2.88 2.81-3.74a4.11 4.11 0 0 1-.78-2.24c0-2.19 1.86-3.36 4.12-3.36 2 0 3.9 1 3.9 3 0 1.4-.83 2.42-2.57 3.18l1.62 2 .93-1.83h2.8zm-4.45-.38l-2-2.44a1.51 1.51 0 0 0-.86 1.38A1.49 1.49 0 0 0 39.44 50a1.67 1.67 0 0 0 1.25-.53zm-.39-5.17c.86-.41 1.27-.9 1.27-1.56a.92.92 0 0 0-1-1 1 1 0 0 0-1.06 1.12 2.36 2.36 0 0 0 .79 1.44zM48.45 39.64h5c3.36 0 5.23 1.36 5.23 4.07v.07a3.35 3.35 0 0 1-2.32 3.37l3.07 5.32h-3.86L53 47.87h-.86v4.6h-3.69zm4.84 5.85c1.24 0 1.85-.52 1.85-1.57v-.07c0-1-.64-1.45-1.83-1.45h-1.2v3.09zM64 39.64h5.72c3 0 4.28 1.36 4.28 3.36v.07a2.65 2.65 0 0 1-2.17 2.77 2.78 2.78 0 0 1 2.56 3v.08c0 2.29-1.49 3.57-4.66 3.57H64zm5 5.09c1.15 0 1.58-.39 1.58-1.31v-.07c0-.88-.47-1.27-1.58-1.27h-1.4v2.65zm.07 5.27c1.17 0 1.71-.54 1.71-1.49v-.07c0-1-.52-1.47-1.82-1.47h-1.41v3zM75.68 39h3.19v13.47h-3.19zM80.1 47.89v-.14a4.82 4.82 0 0 1 5.15-4.92c2.88 0 5.11 1.85 5.11 4.83v.14c0 3.05-2.24 4.88-5.13 4.88s-5.13-1.76-5.13-4.79zm7 0v-.15c0-1.58-.62-2.46-1.84-2.46s-1.87.85-1.87 2.43v.14c0 1.62.63 2.49 1.87 2.49s1.83-.94 1.83-2.5zM91 47.89v-.14a4.72 4.72 0 0 1 5-4.92c2.29 0 4.41 1 4.59 3.86h-3a1.4 1.4 0 0 0-1.51-1.37c-1.13 0-1.8.81-1.8 2.39v.14c0 1.64.63 2.48 1.85 2.48a1.57 1.57 0 0 0 1.64-1.56h2.89c-.09 2.37-1.69 3.91-4.72 3.91-2.81 0-4.94-1.63-4.94-4.79zM101.69 39h3.21v7.8l2.53-3.72h3.34l-3.07 4.22 3.3 5.17h-3.59l-2.53-4.11v4.11h-3.21zM21.24 59.59h8.67v2.85h-5v2.73h4v2.71h-4v4.54h-3.67zM30.77 63H34v1.9a3 3 0 0 1 3-2v3c-1.95-.05-3 .56-3 2.07v4.45h-3.23zM37.59 67.84v-.14a4.8 4.8 0 0 1 5.08-4.92 4.44 4.44 0 0 1 4.77 4.84v.85h-6.6a1.87 1.87 0 0 0 1.95 2c1.06 0 1.51-.48 1.64-1.11h3c-.28 2.12-1.92 3.32-4.75 3.32s-5.09-1.77-5.09-4.84zm6.73-1.18c0-1.13-.61-1.76-1.65-1.76a1.8 1.8 0 0 0-1.8 1.76zM48.06 67.84v-.14a4.8 4.8 0 0 1 5.07-4.92 4.45 4.45 0 0 1 4.78 4.84v.85H51.3a1.87 1.87 0 0 0 2 2c1.06 0 1.51-.48 1.63-1.11h3c-.29 2.12-1.92 3.32-4.76 3.32s-5.11-1.77-5.11-4.84zm6.72-1.18c-.05-1.13-.61-1.76-1.65-1.76a1.79 1.79 0 0 0-1.79 1.76zM61.89 66.08v-.14c0-3.91 3-6.53 6.79-6.53s6.8 2.45 6.8 6.44V66c0 4-2.71 6.64-6.86 6.64s-6.73-2.7-6.73-6.56zm9.75 0v-.18c0-2.28-1.15-3.62-3-3.62s-3 1.31-3 3.64v.14c0 2.34 1.19 3.68 3 3.68s3-1.4 3-3.69zM76.72 63h3.21v1.51A3.33 3.33 0 0 1 83 62.78c1.81 0 3.07 1.13 3.07 3.53v6.11h-3.19V67c0-1.06-.42-1.58-1.35-1.58s-1.6.58-1.6 1.78v5.26h-3.21zM87.74 58.9h3.2v13.52h-3.2zM92.59 60.48a1.77 1.77 0 1 1 1.76 1.65 1.68 1.68 0 0 1-1.76-1.65zm.16 2.52H96v9.39h-3.25zM97.69 63h3.21v1.51a3.3 3.3 0 0 1 3.1-1.73c1.82 0 3.07 1.13 3.07 3.53v6.11h-3.21V67c0-1.06-.41-1.58-1.34-1.58s-1.6.58-1.6 1.78v5.26h-3.23zM108.12 67.84v-.14a4.8 4.8 0 0 1 5.07-4.92 4.45 4.45 0 0 1 4.81 4.84v.85h-6.61a1.87 1.87 0 0 0 2 2c1.06 0 1.51-.48 1.63-1.11h3c-.29 2.12-1.92 3.32-4.76 3.32s-5.14-1.77-5.14-4.84zm6.72-1.18c0-1.13-.61-1.76-1.65-1.76a1.78 1.78 0 0 0-1.79 1.76zM118.87 70.8a1.79 1.79 0 0 1 1.83-1.8 1.81 1.81 0 1 1 0 3.62 1.78 1.78 0 0 1-1.83-1.82zM24.32 86.88l-4.18-7.34h4l2.17 4.32 2.17-4.32H32l-4 7.34v5.49h-3.7zM30.66 87.79v-.14a4.8 4.8 0 0 1 5.08-4.92c2.57 0 4.77 1.47 4.77 4.85v.84h-6.6a1.87 1.87 0 0 0 2 2c1.05 0 1.5-.48 1.63-1.11h3c-.28 2.12-1.92 3.32-4.75 3.32s-5.13-1.77-5.13-4.84zm6.73-1.18c0-1.13-.61-1.76-1.65-1.76A1.78 1.78 0 0 0 34 86.61zM41.63 83h3.21v1.4a3.31 3.31 0 0 1 2.93-1.65c2.19 0 4 1.65 4 4.86v.15c0 3.23-1.77 4.84-4 4.84a3.09 3.09 0 0 1-2.93-1.6v4.53h-3.21zm6.84 4.76v-.15c0-1.65-.72-2.44-1.85-2.44s-1.87.85-1.87 2.43v.14c0 1.6.7 2.4 1.87 2.4s1.85-.86 1.85-2.4zM52 93.82l1.51-4.72 3 1.06-2.58 4.4zM61.45 79.54h8.66v2.85h-5v2.73h4v2.71h-4v4.54h-3.66zM71.57 79.54h5c3.36 0 5.23 1.36 5.23 4.07v.07a3.35 3.35 0 0 1-2.32 3.37l3.07 5.32h-3.86l-2.6-4.6h-.86v4.6h-3.66zm4.84 5.85c1.24 0 1.85-.52 1.85-1.57v-.07c0-1-.64-1.45-1.83-1.45h-1.2v3.09zM83.81 79.54h8.87v2.83h-5.21v2.21h4.15v2.62h-4.15v2.33H93v2.84h-9.19zM94.53 79.54h8.86v2.83h-5.2v2.21h4.14v2.62h-4.14v2.33h5.49v2.84h-9.15zM105.1 90.79a1.92 1.92 0 1 1 1.9 1.77 1.85 1.85 0 0 1-1.9-1.77zm.09-11.25h3.62l-.48 8.61h-2.66z" fill="#14aa40"/></svg>