<svg xmlns="http://www.w3.org/2000/svg" viewBox="0 0 300 250"><title>Asset 1</title><path fill="none" d="M0 0h300v250H0z"/><path d="M21.6 34.88h6.52c4.34 0 6.76 1.77 6.76 5.28v.09a4.33 4.33 0 0 1-3 4.37l4 6.89h-5l-3.38-6h-1.15v6H21.6zm6.28 7.58c1.61 0 2.4-.67 2.4-2v-.1c0-1.34-.84-1.88-2.37-1.88h-1.56v4zM35.86 45.58v-.19c0-3.91 2.9-6.37 6.58-6.37 3.32 0 6.18 1.91 6.18 6.28v1.09h-8.55a2.42 2.42 0 0 0 2.53 2.54c1.37 0 1.95-.63 2.12-1.45h3.9c-.37 2.75-2.49 4.31-6.16 4.31s-6.6-2.24-6.6-6.21zM44.58 44c-.07-1.46-.79-2.28-2.14-2.28A2.32 2.32 0 0 0 40.11 44zM49.48 48.14c0-2.87 2.42-4 6.47-4h1.16v-.28c0-1.16-.28-1.93-1.61-1.93a1.49 1.49 0 0 0-1.65 1.44H50c.18-2.93 2.48-4.37 5.81-4.37s5.49 1.37 5.49 4.6v7.89h-4v-1.4a4 4 0 0 1-3.6 1.7c-2.29 0-4.22-1.07-4.22-3.65zm7.63-.89v-.74H56c-1.68 0-2.42.32-2.42 1.32 0 .7.46 1.14 1.44 1.14a1.83 1.83 0 0 0 2.09-1.72zM63.38 34h4.14v17.51h-4.14zM74 39.35h4.16v1.81A4.3 4.3 0 0 1 81.94 39c2.84 0 5.14 2.14 5.14 6.3v.19c0 4.18-2.3 6.28-5.16 6.28a4 4 0 0 1-3.77-2.07v5.86H74zm8.86 6.16v-.19c0-2.14-.93-3.16-2.4-3.16S78 43.25 78 45.3v.18c0 2.07.91 3.12 2.42 3.12s2.43-1.09 2.43-3.09zM88.59 39.35h4.16v2.41a3.84 3.84 0 0 1 3.93-2.58v3.89c-2.54-.07-3.93.72-3.93 2.67v5.77h-4.16zM97.42 45.58v-.19c0-3.91 2.91-6.37 6.68-6.37s6.62 2.39 6.62 6.25v.19c0 3.95-2.9 6.33-6.65 6.33s-6.65-2.28-6.65-6.21zm9.07-.07v-.19c0-2-.81-3.18-2.39-3.18s-2.42 1.09-2.42 3.13v.19c0 2.09.81 3.23 2.42 3.23s2.39-1.16 2.39-3.18zM111.44 47.65h3.84c.14.88.53 1.37 1.72 1.37 1 0 1.49-.4 1.49-1s-.58-.86-2.26-1.09c-3.25-.42-4.63-1.38-4.63-3.91 0-2.7 2.4-4 5.21-4 3 0 5.1 1 5.37 3.93h-3.76a1.37 1.37 0 0 0-1.56-1.21c-.91 0-1.37.4-1.37.95s.55.82 2 1c3.38.42 5 1.31 5 3.91 0 2.88-2.14 4.19-5.51 4.19s-5.45-1.45-5.54-4.14zM123.72 49.41a2.31 2.31 0 0 1 2.37-2.34 2.35 2.35 0 1 1 0 4.69 2.31 2.31 0 0 1-2.37-2.35zM21.6 60.13h6.52c4.34 0 6.76 1.77 6.76 5.28v.09a4.33 4.33 0 0 1-3 4.37l4 6.89h-5l-3.38-6h-1.15v6H21.6zm6.28 7.58c1.61 0 2.4-.67 2.4-2v-.1c0-1.34-.84-1.88-2.37-1.88h-1.56v4zM35.86 70.83v-.19c0-3.91 2.9-6.37 6.58-6.37 3.32 0 6.18 1.91 6.18 6.28v1.09h-8.55a2.42 2.42 0 0 0 2.53 2.54c1.37 0 1.95-.63 2.12-1.45h3.9c-.37 2.75-2.49 4.27-6.16 4.27s-6.6-2.2-6.6-6.17zm8.72-1.54c-.07-1.46-.79-2.28-2.14-2.28a2.32 2.32 0 0 0-2.33 2.28zM49.48 73.39c0-2.87 2.42-4 6.47-4h1.16v-.28c0-1.16-.28-1.93-1.61-1.93a1.49 1.49 0 0 0-1.65 1.44H50c.18-2.93 2.48-4.37 5.81-4.37s5.49 1.37 5.49 4.6v7.89h-4v-1.4A4 4 0 0 1 53.6 77c-2.19 0-4.12-1-4.12-3.61zm7.63-.89v-.74H56c-1.68 0-2.42.32-2.42 1.32 0 .7.46 1.14 1.44 1.14a1.83 1.83 0 0 0 2.09-1.72zM63.38 59.25h4.14v17.51h-4.14zM74 59.25h4.16v7.3a4.28 4.28 0 0 1 4-2.28c2.35 0 4 1.46 4 4.58v7.91H82v-7.07c0-1.37-.53-2-1.74-2s-2.07.75-2.07 2.3v6.82H74zM87.49 70.83v-.19a6.22 6.22 0 0 1 6.58-6.37c3.33 0 6.19 1.91 6.19 6.28v1.09H91.7a2.43 2.43 0 0 0 2.54 2.54c1.37 0 2-.63 2.11-1.45h3.91C99.89 75.48 97.77 77 94.1 77s-6.61-2.2-6.61-6.17zm8.72-1.54c-.07-1.46-.79-2.28-2.14-2.28a2.32 2.32 0 0 0-2.32 2.28zM101.82 59.25H106v17.51h-4.13zM108.19 64.6h4.16v1.81a4.3 4.3 0 0 1 3.79-2.14c2.84 0 5.14 2.14 5.14 6.3v.19c0 4.18-2.3 6.28-5.16 6.28a4 4 0 0 1-3.77-2.04v5.86h-4.16zm8.86 6.16v-.19c0-2.14-.93-3.16-2.4-3.16s-2.42 1.09-2.42 3.14v.18c0 2.07.91 3.12 2.42 3.12s2.4-1.09 2.4-3.09zM122.32 74.66a2.31 2.31 0 0 1 2.37-2.34 2.35 2.35 0 1 1 0 4.69 2.31 2.31 0 0 1-2.37-2.35zM21.6 85.38h6.52c4.34 0 6.76 1.77 6.76 5.28v.09a4.33 4.33 0 0 1-3 4.37l4 6.89h-5l-3.38-6h-1.15v6H21.6zM27.88 93c1.61 0 2.4-.67 2.4-2v-.1c0-1.34-.84-1.88-2.37-1.88h-1.56v4zM35.86 96.08v-.19c0-3.91 2.9-6.37 6.58-6.37 3.32 0 6.18 1.91 6.18 6.28v1.09h-8.55a2.42 2.42 0 0 0 2.53 2.54c1.37 0 1.95-.63 2.12-1.45h3.9c-.37 2.75-2.49 4.31-6.16 4.31s-6.6-2.24-6.6-6.21zm8.72-1.54c-.07-1.46-.79-2.28-2.14-2.28a2.32 2.32 0 0 0-2.33 2.28zM49.48 98.64c0-2.87 2.42-4 6.47-4h1.16v-.28c0-1.16-.28-1.93-1.61-1.93a1.49 1.49 0 0 0-1.65 1.44H50c.18-2.93 2.48-4.37 5.81-4.37s5.49 1.37 5.49 4.6v7.9h-4v-1.42a4 4 0 0 1-3.6 1.7c-2.29.01-4.22-1.06-4.22-3.64zm7.63-.89V97H56c-1.68 0-2.42.32-2.42 1.32 0 .7.46 1.14 1.44 1.14a1.83 1.83 0 0 0 2.09-1.71zM63.38 84.5h4.14V102h-4.14zM74.61 92.68h-1.53v-2.83h1.53v-1.07c0-3 1.89-4.47 4.77-4.47a7.41 7.41 0 0 1 1.91.26v3a4 4 0 0 0-1.14-.16 1.22 1.22 0 0 0-1.4 1.33v1.07h2.47v2.83h-2.47V102h-4.14zM81.68 98.64c0-2.87 2.42-4 6.47-4h1.16v-.28c0-1.16-.28-1.93-1.61-1.93a1.49 1.49 0 0 0-1.65 1.44h-3.9c.18-2.93 2.48-4.37 5.81-4.37s5.49 1.37 5.49 4.6v7.9h-4v-1.42a4 4 0 0 1-3.6 1.7c-2.24.01-4.17-1.06-4.17-3.64zm7.63-.89V97h-1.09c-1.68 0-2.42.32-2.42 1.32 0 .7.46 1.14 1.44 1.14a1.83 1.83 0 0 0 2.07-1.71zM94.65 98.15h3.84c.14.88.54 1.37 1.72 1.37 1 0 1.49-.4 1.49-1s-.58-.86-2.26-1.09c-3.25-.42-4.62-1.38-4.62-3.91 0-2.7 2.39-4 5.21-4 3 0 5.09 1 5.37 3.93h-3.77a1.36 1.36 0 0 0-1.56-1.21c-.9 0-1.37.4-1.37 1s.56.82 2 1c3.37.42 5 1.31 5 3.91 0 2.88-2.14 4.19-5.51 4.19s-5.44-1.5-5.54-4.19zM107.65 98.1v-5.42h-1.46v-2.83h1.46v-2.54h4.16v2.54h2.4v2.83h-2.4v5a1.11 1.11 0 0 0 1.24 1.32 3.14 3.14 0 0 0 1.18-.21v3.17a8.63 8.63 0 0 1-2.3.35c-2.74-.02-4.28-1.31-4.28-4.21zM115.63 99.91a2.31 2.31 0 0 1 2.37-2.34 2.35 2.35 0 1 1 0 4.69 2.31 2.31 0 0 1-2.37-2.35z" fill="#14aa40"/></svg>